<svg xmlns="http://www.w3.org/2000/svg" viewBox="0 0 1200 630" role="img" aria-labelledby="title desc">
  <title id="title">Logan Dixon</title>
  <desc id="desc">Mathematics, AI, and reproducible research</desc>
  <rect width="1200" height="630" fill="#0b1f2a"/>
  <g opacity=".18" stroke="#86a7b5" stroke-width="1">
    <path d="M0 90h1200M0 180h1200M0 270h1200M0 360h1200M0 450h1200M0 540h1200"/>
    <path d="M90 0v630M180 0v630M270 0v630M360 0v630M450 0v630M540 0v630M630 0v630M720 0v630M810 0v630M900 0v630M990 0v630M1080 0v630"/>
  </g>
  <rect x="74" y="66" width="86" height="86" rx="18" fill="#eaf2f8"/>
  <text x="117" y="120" text-anchor="middle" font-family="Arial, sans-serif" font-size="34" font-weight="700" fill="#102a43">LD</text>
  <rect x="74" y="164" width="330" height="5" rx="2.5" fill="#2cb1bc"/>
  <text x="74" y="286" font-family="Georgia, serif" font-size="78" font-weight="600" fill="#edf4f7">Logan Dixon</text>
  <text x="74" y="355" font-family="Arial, sans-serif" font-size="36" font-weight="600" fill="#6ed3d8">Mathematics · AI · reproducible research</text>
  <text x="74" y="424" font-family="Arial, sans-serif" font-size="25" fill="#b9ccd5">Nonlinear analysis · neural networks · exact and certified computation</text>
  <g transform="translate(74 490)">
    <rect width="225" height="54" rx="9" fill="#153e45" stroke="#2cb1bc"/>
    <text x="112.5" y="35" text-anchor="middle" font-family="Arial, sans-serif" font-size="21" font-weight="600" fill="#e7f7f6">Research papers</text>
    <rect x="244" width="225" height="54" rx="9" fill="#132f3d" stroke="#466778"/>
    <text x="356.5" y="35" text-anchor="middle" font-family="Arial, sans-serif" font-size="21" font-weight="600" fill="#eaf2f8">AI Playgrounds</text>
  </g>
  <text x="1126" y="574" text-anchor="end" font-family="Arial, sans-serif" font-size="24" font-weight="600" fill="#6ed3d8">lmdixon23.github.io</text>
</svg>
